<svg width="250" height="250" viewBox="0 0 250 250" fill="none" xmlns="http://www.w3.org/2000/svg">
<rect width="250" height="250" fill="#2DD4BF"/>
<rect x="50" y="72" width="150" height="113" rx="24" stroke="white" stroke-width="6"/>
<path d="M52 128.004C55.8933 102.127 60.76 102.127 66.6 128.004C73.282 161.342 78.1487 161.342 81.2 128.004C85.0933 94.6655 89.96 94.6655 95.8 128.004C101.566 160.499 106.433 160.499 110.4 128.004C114.293 95.508 119.16 95.508 125 128.004C129.629 147.019 134.495 147.019 139.6 128.004C143.493 108.988 148.36 108.988 154.2 128.004C161.703 157.851 166.57 157.851 168.8 128.004C172.693 98.1558 177.56 98.1558 183.4 128.004C189.711 162.665 194.578 162.665 198 128.004" stroke="white" stroke-width="2"/>
</svg>
